<svg width="16" height="16" viewBox="0 0 16 16" fill="none" xmlns="http://www.w3.org/2000/svg">
<path d="M12.5625 2.40438C11.3316 1.17594 9.71189 0.5 8.00002 0.5H7.98846C6.26655 0.503063 4.61622 1.18923 3.39973 2.40789C2.18325 3.62654 1.50002 5.27809 1.50002 7V10.1459C1.49808 10.6462 1.647 11.1355 1.92735 11.5499C2.20771 11.9642 2.60646 12.2845 3.07158 12.4688L3.81252 12.7631C3.88989 12.7938 3.95832 12.8434 4.01155 12.9074C4.06479 12.9714 4.10111 13.0477 4.11721 13.1294L4.42971 14.6959C4.47549 14.9224 4.59805 15.126 4.77667 15.2726C4.95528 15.4191 5.17901 15.4994 5.41002 15.5H5.75002C5.81632 15.5 5.87991 15.4737 5.9268 15.4268C5.97368 15.3799 6.00002 15.3163 6.00002 15.25V14.0141C6.00002 13.745 6.20689 13.5141 6.47596 13.5006C6.54356 13.4974 6.61112 13.5079 6.67455 13.5315C6.73797 13.5551 6.79594 13.5914 6.84494 13.6381C6.89394 13.6848 6.93295 13.7409 6.95961 13.8031C6.98626 13.8653 7.00001 13.9323 7.00002 14V15.25C7.00002 15.3163 7.02636 15.3799 7.07324 15.4268C7.12013 15.4737 7.18371 15.5 7.25002 15.5C7.31632 15.5 7.37991 15.4737 7.4268 15.4268C7.47368 15.3799 7.50002 15.3163 7.50002 15.25V14.0141C7.50002 13.745 7.70689 13.5141 7.97596 13.5006C8.04356 13.4974 8.11112 13.5079 8.17455 13.5315C8.23797 13.5551 8.29594 13.5914 8.34494 13.6381C8.39394 13.6848 8.43295 13.7409 8.45961 13.8031C8.48626 13.8653 8.50001 13.9323 8.50002 14V15.25C8.50002 15.3163 8.52636 15.3799 8.57324 15.4268C8.62013 15.4737 8.68371 15.5 8.75002 15.5C8.81632 15.5 8.87991 15.4737 8.9268 15.4268C8.97368 15.3799 9.00002 15.3163 9.00002 15.25V14.0141C9.00002 13.745 9.20689 13.5141 9.47596 13.5006C9.54356 13.4974 9.61112 13.5079 9.67455 13.5315C9.73797 13.5551 9.79594 13.5914 9.84494 13.6381C9.89394 13.6848 9.93295 13.7409 9.95961 13.8031C9.98627 13.8653 10 13.9323 10 14V15.25C10 15.3163 10.0264 15.3799 10.0732 15.4268C10.1201 15.4737 10.1837 15.5 10.25 15.5H10.59C10.821 15.4995 11.0448 15.4192 11.2235 15.2728C11.4022 15.1263 11.5248 14.9227 11.5706 14.6962L11.8831 13.1294C11.8994 13.0478 11.9358 12.9716 11.9889 12.9077C12.0421 12.8437 12.1103 12.794 12.1875 12.7631L12.9285 12.4688C13.3936 12.2845 13.7923 11.9642 14.0727 11.5499C14.353 11.1355 14.502 10.6462 14.5 10.1459V7.05219C14.5 5.30219 13.8125 3.65188 12.5625 2.40438ZM5.36439 10.4963C5.00928 10.5195 4.65552 10.434 4.35028 10.251C4.04505 10.068 3.80285 9.79635 3.65598 9.4722C3.50912 9.14804 3.46457 8.78682 3.52828 8.4367C3.59199 8.08657 3.76093 7.76419 4.01257 7.51256C4.26421 7.26092 4.58659 7.09198 4.93671 7.02826C5.28684 6.96455 5.64806 7.0091 5.97221 7.15597C6.29637 7.30283 6.56804 7.54503 6.75101 7.85027C6.93397 8.1555 7.01953 8.50926 6.99627 8.86438C6.96852 9.28806 6.78768 9.6872 6.48745 9.98743C6.18722 10.2877 5.78808 10.4685 5.36439 10.4963ZM8.78127 12.4141C8.6953 12.4714 8.59398 12.5014 8.49064 12.5H7.50939C7.40627 12.5012 7.30519 12.4713 7.21939 12.4141C7.13559 12.3573 7.071 12.2764 7.03418 12.1821C6.99735 12.0878 6.99001 11.9845 7.01314 11.8859L7.51033 10.3984C7.59377 10.1875 7.72658 10.0313 7.93752 10.0041C8.19564 9.97281 8.37502 10.0938 8.48783 10.3859L8.98783 11.8859C9.01093 11.9845 9.00355 12.0878 8.96666 12.1821C8.92978 12.2764 8.86513 12.3573 8.78127 12.4141ZM10.865 10.4963C10.5099 10.5195 10.1561 10.434 9.85091 10.251C9.54567 10.068 9.30347 9.79635 9.15661 9.4722C9.00974 9.14804 8.9652 8.78682 9.02891 8.4367C9.09262 8.08657 9.26156 7.76419 9.5132 7.51256C9.76484 7.26092 10.0872 7.09198 10.4373 7.02826C10.7875 6.96455 11.1487 7.0091 11.4728 7.15597C11.797 7.30283 12.0687 7.54503 12.2516 7.85027C12.4346 8.1555 12.5202 8.50926 12.4969 8.86438C12.4691 9.28816 12.2882 9.68738 11.9878 9.98763C11.6875 10.2879 11.2882 10.4686 10.8644 10.4963H10.865Z" fill="#FA605E"/>
</svg>
